<svg version="1.2" xmlns="http://www.w3.org/2000/svg" viewBox="0 0 24 24" width="24" height="24">
	<title>youtube</title>
	<style>
		.s0 { fill: #2b7fff } 
	</style>
	<path class="s0" d="m23.5 6.2q-0.1-0.4-0.3-0.7-0.2-0.4-0.5-0.7-0.3-0.2-0.6-0.4-0.3-0.2-0.7-0.4c-1.9-0.5-9.4-0.5-9.4-0.5 0 0-7.5 0-9.4 0.5q-0.4 0.2-0.7 0.4-0.3 0.2-0.6 0.4-0.3 0.3-0.5 0.7-0.2 0.3-0.3 0.7c-0.5 1.9-0.5 5.8-0.5 5.8 0 0 0 3.9 0.5 5.8q0.1 0.4 0.3 0.7 0.2 0.4 0.5 0.7 0.3 0.2 0.6 0.4 0.3 0.2 0.7 0.3c1.9 0.6 9.4 0.6 9.4 0.6 0 0 7.5 0 9.4-0.6q0.4-0.1 0.7-0.3 0.3-0.2 0.6-0.4 0.3-0.3 0.5-0.7 0.2-0.3 0.3-0.7c0.5-1.9 0.5-5.8 0.5-5.8 0 0 0-3.9-0.5-5.8zm-14 9.4v-7.2l6.3 3.6z"/>
</svg>